<svg width="481" height="481" viewBox="0 0 481 481" fill="none" xmlns="http://www.w3.org/2000/svg">
<g clip-path="url(#clip0)">
<path d="M435.498 64.829C433.25 63.74 430.622 63.763 428.393 64.893L393.913 82.381L366.929 36.029C357.692 18.716 339.631 7.938 320.009 8.029H186.665C166.756 8.077 148.312 18.501 138.001 35.533L113.201 75.837C110.909 79.561 112.031 84.435 115.721 86.781L203.721 142.781C205.003 143.596 206.49 144.028 208.009 144.029C208.673 144.03 209.334 143.946 209.977 143.781C212.112 143.24 213.93 141.842 215.001 139.917L248.601 79.461L285.401 149.061L251.897 169.165C248.955 170.929 247.465 174.373 248.193 177.725C248.918 181.076 251.698 183.592 255.105 183.981L374.169 197.517C374.469 197.549 374.771 197.565 375.073 197.565C378.139 197.565 380.936 195.813 382.273 193.053L439.209 75.517C441.135 71.54 439.474 66.755 435.498 64.829ZM205.137 124.716L130.953 77.516L151.673 43.852C159.074 31.585 172.339 24.07 186.665 24.028H219.145L238.969 63.828L205.137 124.716ZM370.345 180.98L280.361 170.748L300.129 158.884C303.768 156.696 305.064 152.047 303.081 148.292L237.377 24.028H320.009C333.904 24.008 346.657 31.716 353.097 44.028L383.881 96.932C386.018 100.588 390.633 101.945 394.409 100.028L414.457 89.868L370.345 180.98Z" fill="white"/>
<path d="M473.049 232.06L447.193 180.412C445.219 176.459 440.414 174.856 436.461 176.83C436.302 176.909 436.146 176.994 435.993 177.084L339.993 233.084C336.231 235.278 334.916 240.078 337.033 243.884L370.409 304.028H296.009V272.028C296.011 267.61 292.43 264.027 288.012 264.025C285.757 264.024 283.606 264.975 282.089 266.644L202.089 354.644C199.482 357.513 199.307 361.838 201.673 364.908L281.673 468.908C284.37 472.407 289.394 473.057 292.893 470.36C294.857 468.846 296.008 466.508 296.009 464.028V440.028H352.009C371.735 440.514 389.986 429.621 398.921 412.028L454.921 316.076L471.561 289.196C482.324 271.813 482.893 249.98 473.049 232.06ZM385.009 404.156C378.845 416.666 365.95 424.431 352.009 424.028H288.009C283.591 424.028 280.009 427.61 280.009 432.028V440.508L218.409 360.46L280.009 292.716V312.028C280.009 316.446 283.591 320.028 288.009 320.028H434.081L385.009 404.156ZM457.921 280.812L443.521 304.012H388.713L354.809 242.996L436.673 195.228L458.873 239.548C466.039 252.463 465.675 268.241 457.921 280.812Z" fill="#F46F16"/>
<path d="M191.273 244.676L143.273 140.676C141.893 137.67 138.806 135.822 135.505 136.028L7.505 144.028C3.095 144.302 -0.257999 148.098 0.0160014 152.508C0.177001 155.096 1.581 157.446 3.785 158.812L3.793 158.828L43.345 183.356L16.945 236.22C7.376 253.605 7.431 274.692 17.089 292.028L61.609 368.908L85.953 411.076C96.408 428.836 115.401 439.822 136.009 440.028H168.009C172.427 440.028 176.009 436.446 176.009 432.028V320.028C176.009 315.61 172.427 312.028 168.009 312.028H108.241L148.145 242.788L181.137 255.492C185.261 257.077 189.89 255.019 191.475 250.895C192.25 248.88 192.177 246.637 191.273 244.676ZM160.009 328.028V424.028H136.009C121.101 423.884 107.358 415.939 99.793 403.092L77.833 365.044L100.489 328.028H160.009ZM147.505 225.396C143.829 223.984 139.672 225.456 137.705 228.868L68.505 348.932L30.937 284.028C24.031 271.41 24.134 256.12 31.209 243.596L60.961 183.964C62.824 180.258 61.546 175.743 58.017 173.564L33.545 158.428L131.041 152.356L168.481 233.476L147.505 225.396Z" fill="white"/>
</g>
<defs>
<clipPath id="clip0">
<rect width="480.052" height="480.052" fill="white"/>
</clipPath>
</defs>
</svg>
