<svg width="512" height="512" viewBox="0 0 512 512" fill="none" xmlns="http://www.w3.org/2000/svg">
<path d="M229.436 146.32L224.483 86.878C224.159 82.991 220.91 80.001 217.009 80.001H209.51V72.5C209.51 60.093 199.417 50 187.01 50C174.603 50 164.51 60.093 164.51 72.5V80.001H157.011C153.158 80.001 149.932 82.92 149.548 86.754L143.547 146.754C143.336 148.863 144.027 150.962 145.449 152.533C146.871 154.104 148.891 155 151.01 155H222.008C222.015 155 222.021 155 222.028 155C226.17 155 229.528 151.642 229.528 147.5C229.528 147.099 229.496 146.704 229.436 146.32ZM179.51 72.5C179.51 68.364 182.874 65 187.01 65C191.146 65 194.51 68.364 194.51 72.5V80.001H179.51V72.5ZM159.297 140.001L163.798 95.001H210.108L213.857 140.001H159.297Z" fill="#F46F16"/>
<path d="M428.454 66.75C428.436 66.567 428.404 66.389 428.373 66.211C428.362 66.148 428.356 66.084 428.344 66.022C428.302 65.81 428.247 65.602 428.186 65.396C428.178 65.369 428.173 65.34 428.165 65.313C428.101 65.103 428.025 64.898 427.944 64.696C427.935 64.672 427.927 64.648 427.918 64.624C427.838 64.431 427.747 64.243 427.651 64.059C427.634 64.027 427.621 63.993 427.604 63.961C427.512 63.79 427.41 63.624 427.305 63.461C427.277 63.418 427.254 63.373 427.225 63.33C427.12 63.174 427.006 63.025 426.89 62.877C426.855 62.832 426.824 62.784 426.788 62.74C426.632 62.551 426.468 62.368 426.294 62.195L366.3 2.198C366.127 2.025 365.945 1.86 365.755 1.704C365.706 1.664 365.653 1.63 365.604 1.591C365.461 1.479 365.317 1.368 365.166 1.267C365.119 1.235 365.069 1.209 365.021 1.179C364.862 1.078 364.702 0.978 364.536 0.889C364.499 0.869 364.461 0.854 364.424 0.835C364.243 0.742 364.06 0.652 363.872 0.574C363.845 0.563 363.817 0.555 363.79 0.545C363.591 0.465 363.389 0.39 363.182 0.327C363.152 0.318 363.121 0.312 363.091 0.304C362.887 0.245 362.682 0.19 362.472 0.148C362.409 0.135 362.344 0.13 362.281 0.119C362.104 0.088 361.926 0.057 361.744 0.039C361.496 0.013 361.246 0 360.995 0H91.009C86.867 0 83.509 3.358 83.509 7.5V460.975C83.509 465.117 86.867 468.475 91.009 468.475H261.008C265.15 468.475 268.508 465.117 268.508 460.975C268.508 456.833 265.15 453.475 261.008 453.475H98.509V15H353.495V67.498C353.495 71.64 356.853 74.998 360.995 74.998H413.491V453.475H371.008C366.866 453.475 363.508 456.833 363.508 460.975C363.508 465.117 366.866 468.475 371.008 468.475H420.991C425.133 468.475 428.491 465.117 428.491 460.975V67.498C428.491 67.247 428.479 66.997 428.454 66.75ZM368.495 59.998V25.607L402.885 59.998H368.495Z" fill="white"/>
<path d="M360.995 213.493H151.007C146.865 213.493 143.507 216.851 143.507 220.993C143.507 225.135 146.865 228.493 151.007 228.493H360.995C365.137 228.493 368.495 225.135 368.495 220.993C368.495 216.851 365.137 213.493 360.995 213.493Z" fill="white"/>
<path d="M360.995 253.502H151.007C146.865 253.502 143.507 256.86 143.507 261.002C143.507 265.144 146.865 268.502 151.007 268.502H360.995C365.137 268.502 368.495 265.144 368.495 261.002C368.495 256.86 365.137 253.502 360.995 253.502Z" fill="white"/>
<path d="M360.995 293.501H151.007C146.865 293.501 143.507 296.859 143.507 301.001C143.507 305.143 146.865 308.501 151.007 308.501H360.995C365.137 308.501 368.495 305.143 368.495 301.001C368.495 296.859 365.137 293.501 360.995 293.501Z" fill="white"/>
<path d="M241.001 333.501H151.007C146.865 333.501 143.507 336.859 143.507 341.001C143.507 345.143 146.865 348.501 151.007 348.501H241.001C245.143 348.501 248.501 345.143 248.501 341.001C248.501 336.859 245.143 333.501 241.001 333.501Z" fill="white"/>
<path d="M368.507 406.002C368.507 377.053 344.956 353.502 316.007 353.502C287.058 353.502 263.507 377.053 263.507 406.002C263.507 422.685 271.339 437.565 283.509 447.188V504.5C283.509 504.58 283.518 504.657 283.521 504.737C283.526 504.89 283.53 505.042 283.544 505.195C283.554 505.302 283.571 505.407 283.585 505.513C283.604 505.65 283.622 505.787 283.648 505.923C283.67 506.037 283.699 506.149 283.726 506.261C283.756 506.386 283.785 506.511 283.822 506.634C283.857 506.752 283.898 506.866 283.939 506.982C283.979 507.096 284.018 507.211 284.064 507.324C284.113 507.444 284.168 507.559 284.223 507.676C284.272 507.78 284.319 507.885 284.373 507.988C284.438 508.111 284.509 508.228 284.58 508.347C284.635 508.439 284.688 508.532 284.747 508.622C284.83 508.748 284.921 508.868 285.011 508.989C285.06 509.054 285.102 509.122 285.153 509.186C285.163 509.199 285.175 509.209 285.185 509.222C285.353 509.43 285.531 509.629 285.72 509.817C285.773 509.87 285.831 509.916 285.886 509.967C286.023 510.096 286.163 510.222 286.31 510.341C286.398 510.412 286.489 510.476 286.58 510.543C286.703 510.633 286.826 510.721 286.953 510.803C287.049 510.865 287.146 510.923 287.245 510.98C287.378 511.058 287.514 511.13 287.652 511.2C287.746 511.247 287.84 511.294 287.937 511.337C288.09 511.406 288.247 511.467 288.405 511.526C288.491 511.558 288.576 511.592 288.663 511.62C288.84 511.679 289.022 511.727 289.205 511.772C289.278 511.79 289.35 511.812 289.423 511.828C289.625 511.872 289.831 511.903 290.039 511.93C290.097 511.937 290.154 511.95 290.212 511.956C290.457 511.982 290.706 511.995 290.958 511.997C290.977 511.997 290.996 512 291.015 512C291.023 512 291.03 511.998 291.038 511.998C291.404 511.997 291.761 511.961 292.112 511.91C292.188 511.899 292.262 511.889 292.338 511.875C292.695 511.812 293.042 511.724 293.379 511.612C293.441 511.591 293.501 511.567 293.562 511.545C293.921 511.415 294.271 511.265 294.603 511.084C294.615 511.078 294.626 511.069 294.638 511.063C294.988 510.87 295.317 510.646 295.629 510.401C295.651 510.384 295.675 510.373 295.697 510.356L316.011 494.105L336.324 510.356C336.345 510.373 336.368 510.383 336.389 510.4C336.703 510.646 337.034 510.87 337.384 511.064C337.395 511.07 337.405 511.078 337.416 511.084C337.748 511.266 338.099 511.416 338.459 511.546C338.52 511.568 338.579 511.592 338.64 511.612C338.977 511.724 339.325 511.812 339.682 511.876C339.757 511.889 339.831 511.899 339.907 511.91C340.259 511.962 340.616 511.997 340.982 511.998C340.99 511.998 340.997 512 341.005 512C341.023 512 341.043 511.997 341.061 511.997C341.313 511.995 341.562 511.982 341.808 511.956C341.865 511.95 341.921 511.937 341.977 511.93C342.186 511.903 342.394 511.871 342.596 511.827C342.668 511.811 342.739 511.79 342.81 511.772C342.995 511.727 343.178 511.678 343.357 511.619C343.442 511.591 343.525 511.557 343.61 511.527C343.77 511.467 343.928 511.405 344.083 511.336C344.178 511.294 344.271 511.247 344.365 511.2C344.504 511.13 344.641 511.057 344.775 510.979C344.873 510.922 344.97 510.864 345.066 510.802C345.193 510.719 345.317 510.632 345.439 510.542C345.53 510.475 345.621 510.411 345.71 510.34C345.857 510.222 345.996 510.095 346.133 509.967C346.188 509.916 346.246 509.869 346.299 509.816C346.489 509.628 346.666 509.428 346.835 509.22C346.845 509.208 346.857 509.198 346.867 509.185C346.918 509.122 346.959 509.054 347.008 508.99C347.099 508.869 347.19 508.748 347.274 508.621C347.333 508.531 347.385 508.438 347.441 508.347C347.512 508.228 347.584 508.11 347.649 507.987C347.703 507.885 347.75 507.781 347.798 507.677C347.853 507.56 347.908 507.444 347.957 507.323C348.003 507.21 348.042 507.095 348.082 506.981C348.123 506.866 348.164 506.751 348.199 506.633C348.236 506.509 348.265 506.384 348.295 506.259C348.322 506.147 348.351 506.036 348.373 505.922C348.399 505.785 348.417 505.648 348.436 505.511C348.45 505.406 348.467 505.301 348.477 505.194C348.491 505.041 348.495 504.888 348.5 504.735C348.503 504.656 348.512 504.579 348.512 504.499L348.51 447.188C360.675 437.565 368.507 422.685 368.507 406.002ZM320.802 478.731C320.802 478.73 320.801 478.73 320.801 478.729L320.695 478.644C320.64 478.601 320.582 478.565 320.527 478.523C320.394 478.422 320.261 478.323 320.123 478.232C320.042 478.179 319.959 478.132 319.876 478.082C319.749 478.006 319.623 477.929 319.492 477.861C319.389 477.807 319.284 477.759 319.179 477.711C319.066 477.658 318.953 477.604 318.838 477.558C318.716 477.508 318.592 477.466 318.469 477.423C318.366 477.387 318.263 477.35 318.159 477.319C318.028 477.28 317.896 477.248 317.763 477.216C317.661 477.192 317.558 477.166 317.455 477.145C317.325 477.12 317.195 477.101 317.064 477.083C316.954 477.067 316.843 477.051 316.732 477.04C316.612 477.028 316.493 477.023 316.373 477.017C316.248 477.011 316.124 477.005 315.999 477.005C315.893 477.005 315.788 477.011 315.682 477.016C315.544 477.022 315.406 477.028 315.268 477.042C315.174 477.051 315.081 477.065 314.988 477.078C314.841 477.098 314.694 477.12 314.548 477.148C314.461 477.166 314.374 477.187 314.287 477.208C314.14 477.243 313.994 477.278 313.848 477.322C313.756 477.35 313.666 477.382 313.575 477.414C313.44 477.46 313.305 477.507 313.172 477.561C313.065 477.604 312.961 477.655 312.856 477.703C312.744 477.755 312.632 477.806 312.521 477.864C312.395 477.93 312.272 478.005 312.148 478.079C312.063 478.131 311.977 478.179 311.893 478.234C311.755 478.325 311.622 478.425 311.488 478.526C311.433 478.568 311.376 478.603 311.322 478.646L311.218 478.73C311.217 478.731 311.215 478.732 311.213 478.734L298.509 488.898V455.496C303.986 457.438 309.873 458.506 316.007 458.506C322.141 458.506 328.028 457.439 333.506 455.496L333.507 488.895L320.802 478.731ZM316.007 443.502C295.329 443.502 278.507 426.68 278.507 406.002C278.507 385.324 295.329 368.502 316.007 368.502C336.685 368.502 353.507 385.324 353.507 406.002C353.507 426.68 336.685 443.502 316.007 443.502Z" fill="white"/>
<path d="M316.008 383.501C303.601 383.501 293.508 393.594 293.508 406.001C293.508 418.408 303.601 428.501 316.008 428.501C328.415 428.501 338.508 418.408 338.508 406.001C338.508 393.594 328.415 383.501 316.008 383.501ZM316.008 413.501C311.872 413.501 308.508 410.137 308.508 406.001C308.508 401.865 311.872 398.501 316.008 398.501C320.144 398.501 323.508 401.865 323.508 406.001C323.508 410.137 320.144 413.501 316.008 413.501Z" fill="white"/>
</svg>
