<svg height="45px" viewBox="-77 0 512 512.00201" width="33px" xmlns="http://www.w3.org/2000/svg">
    <path fill="#333333" d="m357.210938 468.703125-22.585938-94.589844c-.035156-.144531-.074219-.292969-.117188-.433593-8.515624-28.054688-36-58.25-76.234374-58.25h-30.523438v-32.90625c6.316406-3.859376 12.175781-8.539063 17.5-14.023438 14.707031-15.148438 25.421875-36.394531 31.164062-61.695312 9.84375-3.214844 17.769532-16.1875 19.523438-33.3125.109375-1.082032.191406-2.160157.246094-3.234376 9.136718-18.664062 13.390625-36.011718 12.972656-52.972656-.101562-4.144531-3.515625-7.398437-7.683594-7.316406-4.140625.105469-7.414062 3.542969-7.3125 7.683594.207032 8.464844-.988281 17.125-3.617187 26.140625-3.296875-5.195313-7.792969-8.277344-13.03125-8.808594-2.359375-.242187-4.726563.074219-7.039063.933594-.726562.269531-1.199218.488281-1.792968.957031-.523438.332031-4.777344 2.910156-13.179688 4.058594-8.453125 1.15625-22.882812 1.0625-43.628906-5.949219-5.300782-1.792969-10.535156-5.503906-16.59375-9.800781-15.425782-10.945313-36.554688-25.933594-75.691406-16.898438-18.390626 4.246094-32.171876 19.382813-37.875 26.628906-.347657.011719-.695313.035157-1.039063.070313-3.160156.320313-6.042969 1.574219-8.5625 3.648437-5.503906-13.414062-7.550781-28.007812-5.601563-40.371093 2.324219-14.722657 9.773438-25.660157 22.148438-32.507813 1.519531-.839844 2.699219-2.183594 3.339844-3.800781 10.003906-25.257813 36.765625-42.0625 73.414062-46.101563 42.894532-4.730468 84.960938 9.792969 102.304688 35.3125 8.675781 12.769532 14.941406 23.945313 19.160156 34.164063 1.578125 3.832031 5.964844 5.652344 9.792969 4.074219 3.828125-1.582032 5.652343-5.964844 4.070312-9.792969-4.613281-11.183594-11.359375-23.246094-20.617187-36.871094-10.5-15.457031-27.8125-27.5625-50.0625-35.015625-20.414063-6.835937-43.953125-9.246094-66.292969-6.78125-19.316406 2.128906-37.121094 7.820313-51.488281 16.453125-15.503906 9.316407-26.664063 21.617188-33.207032 36.582031-32.890624 20.046876-33.488281 61.820313-19.796874 92.8125 1.257812 2.847657 2.527343 5.671876 3.851562 8.566407-1.207031 5.539062-1.53125 11.773437-.882812 18.140625 1.753906 17.125 9.679687 30.097656 19.523437 33.308594 5.742187 25.300781 16.457031 46.546874 31.164063 61.695312 5.375 5.535156 11.292968 10.257812 17.675781 14.140625v32.792969h-30.695313c-19.453125 0-36.308594 6.101562-50.105468 18.140625-11.171876 9.75-20.167969 23.492187-26.011719 39.746093-.09375.261719-.171875.527344-.238281.796876l-22.585938 94.585937c-2.503906 10.488281-.101562 21.363281 6.589844 29.839844 6.75 8.554687 16.894531 13.457031 27.828125 13.457031h214.914062c4.140625 0 7.5-3.355469 7.5-7.5 0-4.140625-3.359375-7.5-7.5-7.5h-28.246093l-18.175782-110.550781v-31.710938c0-2.589843-.585937-5.035156-1.605468-7.246093 8.480468-3.757813 16.003906-9.5625 21.824218-17.058594h34.171875c32.492188 0 54.789063 24.523437 61.816407 47.394531l22.535156 94.359375c1.429687 5.992188.054687 12.210938-3.773438 17.0625-3.890625 4.925781-9.742187 7.75-16.054687 7.75h-37.492188c-4.144531 0-7.5 3.359375-7.5 7.5 0 4.144531 3.355469 7.503906 7.5 7.503906h37.492188c10.933593 0 21.078125-4.90625 27.828125-13.460937 6.691406-8.480469 9.09375-19.355469 6.589844-29.839844zm-261.863282-270.203125c-.695312-3.582031-3.84375-6.0625-7.367187-6.0625-.46875 0-.941407.042969-1.417969.132812-1.460938.144532-7.914062-6.132812-9.394531-20.605468-.660157-6.4375-.023438-12.753906 1.75-17.324219 1.464843-3.785156 3.023437-4.707031 3.269531-4.734375.027344 0 .128906.007812.300781.070312 3.265625 1.214844 6.9375.019532 8.863281-2.886718 3.679688-5.546875 16.527344-20.710938 31.609376-24.191406 32.578124-7.519532 48.367187 3.683593 63.640624 14.515624 6.726563 4.773438 13.082032 9.28125 20.46875 11.777344 41.308594 13.960938 63.300782 4.042969 68.992188.730469.390625.148437 1.839844 1.1875 3.203125 4.71875 1.769531 4.570313 2.410156 10.882813 1.75 17.324219-1.480469 14.476562-7.949219 20.765625-9.410156 20.597656-4.054688-.773438-7.980469 1.878906-8.769531 5.933594-10.164063 52.246094-40.6875 82.210937-83.746094 82.210937-43.054688 0-73.578125-29.964843-83.742188-82.207031zm56.320313 297.488281 6.914062-42.152343c.671875-4.089844-2.101562-7.945313-6.1875-8.617188-4.082031-.675781-7.945312 2.097656-8.617187 6.1875l-7.476563 45.59375h-100.914062c-6.3125 0-12.164063-2.828125-16.054688-7.753906-3.828125-4.851563-5.203125-11.070313-3.773437-17.0625l22.488281-94.175782c15.058594-41.382812 45.203125-47.578124 61.863281-47.578124h34.359375c5.816407 7.488281 13.335938 13.296874 21.8125 17.058593-1.023437 2.207031-1.609375 4.65625-1.609375 7.246094v31.46875l-4.953125 30.203125c-.671875 4.085938 2.097657 7.945312 6.1875 8.613281.410157.070313.816407.101563 1.222657.101563 3.605468 0 6.789062-2.609375 7.390624-6.289063l4.003907-24.398437h21.667969l16.695312 101.554687zm37.214843-116.554687h-19.410156v-24.699219c0-1.289063 1.050782-2.339844 2.34375-2.339844h14.722656c1.292969 0 2.34375 1.050781 2.34375 2.339844zm-9.691406-42.042969h-.050781c-13.5-.015625-25.601563-6.132813-33.535156-16.851563v-30.671874c10.355469 3.84375 21.585937 5.839843 33.484375 5.839843 11.96875 0 23.257812-2.019531 33.660156-5.902343v30.753906c-7.949219 10.722656-20.054688 16.832031-33.558594 16.832031zm0 0"/>
</svg>