<svg width="511" height="511" viewBox="0 0 511 511" fill="none" xmlns="http://www.w3.org/2000/svg">
<g clip-path="url(#clip0)">
<path d="M106.791 189.629C106.791 272.179 173.949 339.336 256.498 339.336C339.048 339.336 406.205 272.179 406.205 189.629C406.205 107.08 339.048 39.9219 256.498 39.9219C173.949 39.9219 106.791 107.08 106.791 189.629ZM256.498 59.8829C328.042 59.8829 386.244 118.086 386.244 189.629C386.244 261.173 328.042 319.375 256.498 319.375C184.954 319.375 126.752 261.173 126.752 189.629C126.752 118.086 184.954 59.8829 256.498 59.8829Z" fill="white"/>
<path d="M164.069 171.836L202.755 209.953L193.855 263.524C193.235 267.255 194.775 271.013 197.835 273.235C200.892 275.457 204.943 275.758 208.299 274.019L256.498 248.99L304.693 274.019C308.022 275.746 312.073 275.477 315.157 273.235C318.217 271.013 319.757 267.255 319.137 263.524L310.237 209.953L348.923 171.836C351.617 169.185 352.58 165.239 351.41 161.641C350.24 158.046 347.141 155.423 343.402 154.857L289.714 146.776L265.422 98.1947C263.734 94.8146 260.276 92.6782 256.498 92.6782C252.716 92.6782 249.262 94.8146 247.57 98.1947L223.278 146.776L169.59 154.857C165.851 155.419 162.752 158.046 161.582 161.641C160.412 165.239 161.379 169.185 164.069 171.836V171.836ZM231.375 165.742C234.588 165.259 237.364 163.243 238.818 160.339L256.498 124.974L274.178 160.339C275.632 163.243 278.408 165.259 281.621 165.742L320.697 171.625L292.537 199.364C290.225 201.645 289.165 204.908 289.695 208.113L296.174 247.103L261.094 228.888C259.656 228.14 258.077 227.766 256.498 227.766C254.919 227.766 253.34 228.14 251.898 228.888L216.818 247.103L223.297 208.113C223.831 204.908 222.771 201.645 220.455 199.364L192.299 171.625L231.375 165.742Z" fill="#F46F16"/>
<path d="M266.479 9.98048C266.479 15.4931 262.011 19.961 256.498 19.961C250.985 19.961 246.518 15.4931 246.518 9.98048C246.518 4.46783 250.985 0 256.498 0C262.011 0 266.479 4.46783 266.479 9.98048Z" fill="white"/>
<path d="M209.461 5.88301C125.504 27.3138 66.8688 102.873 66.8688 189.629C66.8688 243.512 89.5238 294.284 129.294 330.241L69.1651 436.21C67.2314 439.621 67.4731 443.847 69.7811 447.013C72.0891 450.182 76.0345 451.707 79.8747 450.907L148.159 436.728L172.159 504.358C173.461 508.038 176.795 510.615 180.685 510.962C184.576 511.309 188.307 509.348 190.237 505.952L256.498 389.461L322.755 505.952C324.541 509.09 327.862 510.997 331.426 510.997C331.718 510.997 332.014 510.985 332.307 510.962C336.198 510.615 339.531 508.034 340.837 504.358L364.833 436.728L433.117 450.907C436.954 451.703 440.903 450.178 443.211 447.013C445.523 443.847 445.761 439.621 443.827 436.21L383.699 330.241C423.468 294.284 446.123 243.512 446.123 189.629C446.123 102.873 387.488 27.3138 303.535 5.88301C298.19 4.5185 292.759 7.74266 291.395 13.0838C290.03 18.4249 293.254 23.8596 298.595 25.2241C373.706 44.3975 426.166 112.004 426.166 189.629C426.166 284.105 349.437 359.297 256.498 359.297C163.492 359.297 86.8298 284.042 86.8298 189.629C86.8298 112.004 139.286 44.3975 214.397 25.2241C219.738 23.8596 222.962 18.4249 221.601 13.0838C220.237 7.74266 214.806 4.5185 209.461 5.88301V5.88301ZM183.676 477.122L164.062 421.851C162.393 417.149 157.512 414.401 152.627 415.414L97.4107 426.88L144.997 343.013C172.744 363.184 205.598 375.473 239.761 378.514L183.676 477.122ZM360.365 415.414C355.484 414.401 350.599 417.149 348.931 421.851L329.32 477.122L273.231 378.514C307.398 375.473 340.248 363.184 367.999 343.013L415.585 426.88L360.365 415.414Z" fill="white"/>
</g>
<defs>
<clipPath id="clip0">
<rect width="511" height="511" fill="white"/>
</clipPath>
</defs>
</svg>
