<svg width="37px" height="37px" xmlns="http://www.w3.org/2000/svg" viewBox="0 0 37.67 39.45"><title>Ресурс 2</title><g id="Слой_2" data-name="Слой 2"><g id="Слой_1-2" data-name="Слой 1"><path fill="white" d="M18.83,39.45a.86.86,0,0,1-.27-.05l-.44-.2C6.62,34.09,2.36,23.51.81,15.54A41.59,41.59,0,0,1,0,6.24v-1a.65.65,0,0,1,.65-.65h1c2.74,0,5.06-1.45,5.06-3.13V.65A.65.65,0,0,1,7.33,0h23A.65.65,0,0,1,31,.65h0v.86c0,1.68,2.32,3.11,5.07,3.13h1a.65.65,0,0,1,.64.65h0v1c.1,2.48.4,24.65-18.14,32.89l-.42.19A.58.58,0,0,1,18.83,39.45ZM1.32,5.93v.33a40,40,0,0,0,.77,9C3.58,23,7.66,33.13,18.65,38l.17.07L19,38h0C36.74,30.13,36.45,8.76,36.35,6.35V5.93H36c-3.5,0-6.36-2-6.36-4.42V1.29H8v.22c0,2.42-2.85,4.4-6.35,4.42Z"/><path fill="white" d="M17.81,20.36a6,6,0,0,1-.44,2.36,4.82,4.82,0,0,1-1.24,1.75,5.45,5.45,0,0,1-1.92,1.08,7.89,7.89,0,0,1-2.46.37,9.14,9.14,0,0,1-1.48-.12A10.62,10.62,0,0,1,9,25.51a5.44,5.44,0,0,1-.88-.32A1.88,1.88,0,0,1,7.71,25l-.12-.14a1.21,1.21,0,0,1,0-.14.78.78,0,0,1,0-.21,2.11,2.11,0,0,1,0-.58.94.94,0,0,1,.07-.22.28.28,0,0,1,.11-.13.24.24,0,0,1,.14-.05,1,1,0,0,1,.41.17A6,6,0,0,0,9,24a8.07,8.07,0,0,0,1.18.37,7.26,7.26,0,0,0,1.68.17,6.51,6.51,0,0,0,1.7-.23,3.65,3.65,0,0,0,1.38-.72,3.54,3.54,0,0,0,.91-1.25,4.56,4.56,0,0,0,.32-1.83A3.88,3.88,0,0,0,15.88,19,2.67,2.67,0,0,0,15,17.82a3.87,3.87,0,0,0-1.47-.68,9.08,9.08,0,0,0-2.08-.22,10.24,10.24,0,0,0-1.36.09,7,7,0,0,1-1,.08.62.62,0,0,1-.49-.16,1,1,0,0,1-.16-.63V9.72a.78.78,0,0,1,.2-.56A.73.73,0,0,1,9.18,9h7.13a.41.41,0,0,1,.19,0,.51.51,0,0,1,.16.13.6.6,0,0,1,.09.22,1,1,0,0,1,0,.3,1.13,1.13,0,0,1-.12.51.38.38,0,0,1-.36.2H9.89v5.3a7.43,7.43,0,0,1,.94-.07l1.17,0a8.58,8.58,0,0,1,2.57.36,5.16,5.16,0,0,1,1.81,1,4,4,0,0,1,1.08,1.52A4.94,4.94,0,0,1,17.81,20.36Z"/><path fill="white" d="M30.2,17.3a18.42,18.42,0,0,1-.3,3.47,8,8,0,0,1-1,2.72,5.09,5.09,0,0,1-1.81,1.79,5.58,5.58,0,0,1-2.76.64,5.45,5.45,0,0,1-2.57-.55,4.22,4.22,0,0,1-1.71-1.64,7.75,7.75,0,0,1-.94-2.68,20.8,20.8,0,0,1-.3-3.69,20,20,0,0,1,.3-3.46,8.5,8.5,0,0,1,1-2.73,4.93,4.93,0,0,1,1.81-1.79,5.52,5.52,0,0,1,2.76-.64,5.48,5.48,0,0,1,2.57.55A4.35,4.35,0,0,1,29,10.93a7.75,7.75,0,0,1,.95,2.68A19.89,19.89,0,0,1,30.2,17.3Zm-1.66.15c0-.86,0-1.63-.09-2.33a13,13,0,0,0-.31-1.85,6.53,6.53,0,0,0-.52-1.42,3.49,3.49,0,0,0-.76-1,2.9,2.9,0,0,0-1-.59,4,4,0,0,0-1.28-.18,3.35,3.35,0,0,0-2.07.6,3.9,3.9,0,0,0-1.25,1.59,8.26,8.26,0,0,0-.6,2.28,23.54,23.54,0,0,0-.15,2.65,21.57,21.57,0,0,0,.22,3.31,7.2,7.2,0,0,0,.7,2.29,3.22,3.22,0,0,0,1.23,1.33,3.55,3.55,0,0,0,1.82.43A3.82,3.82,0,0,0,26,24.3,3,3,0,0,0,27,23.54a4.12,4.12,0,0,0,.75-1.16,6.81,6.81,0,0,0,.47-1.47,13.16,13.16,0,0,0,.23-1.67C28.52,18.66,28.54,18.06,28.54,17.45Z"/></g></g></svg>