<svg width="30px" height="37px" xmlns="http://www.w3.org/2000/svg" viewBox="0 0 30.55 39.45"><title>Ресурс 1</title><g id="Слой_2" data-name="Слой 2"><g id="Слой_1-2" data-name="Слой 1"><path fill="white" d="M27,16.64a.59.59,0,0,0,0-1.18H26.5V11.23c-.38-.29-.75-.6-1.1-.91l-.08.1v5H2.94V9.24H21.33c.29-.41.59-.8.91-1.17H2.94V2.35H25.32V4.76a.5.5,0,0,0,.08.07c.35-.31.72-.61,1.1-.9V2.35H27a.58.58,0,0,0,.59-.59A.59.59,0,0,0,27,1.17H26.5V.59A.6.6,0,0,0,25.91,0a.58.58,0,0,0-.59.58h0v.59H2.94V.59a.59.59,0,1,0-1.17,0h0v.59H.59a.59.59,0,1,0,0,1.17H1.77V8.07H.59a.59.59,0,0,0,0,1.17H1.77v6.22H.59A.59.59,0,0,0,0,16H0a.6.6,0,0,0,.59.59H1.77v6.2H.59a.59.59,0,0,0-.59.58H0A.59.59,0,0,0,.59,24H1.77v6.2H.59A.59.59,0,0,0,0,30.8H0a.58.58,0,0,0,.59.59H1.77v5.66H.59a.58.58,0,0,0-.59.59.59.59,0,0,0,.59.59H1.77v.62a.59.59,0,0,0,.58.59.6.6,0,0,0,.59-.59v-.62H25.32v.62a.59.59,0,1,0,1.17,0v-.62H27a.59.59,0,0,0,.59-.59.58.58,0,0,0-.59-.59h-.46V31.41H27a.6.6,0,0,0,.59-.59.59.59,0,0,0-.58-.59h-.47V24H27a.59.59,0,0,0,0-1.17h-.47V16.64ZM25.32,37.06H2.94V31.41H25.32Zm0-6.83H2.94V24H25.32Zm0-7.39H2.94v-6.2H25.32Z"/><path fill="white" d="M28.66,9.78l1.89,3L27.6,10.84c-.37-.24-.75-.51-1.1-.78s-.75-.61-1.1-.92l-.12.1a20.25,20.25,0,0,1-2.08,1.61l-2.95,1.88,1.89-2.94c.12-.19.25-.36.36-.55.3-.41.6-.8.92-1.17.13-.17.27-.33.41-.48a19.11,19.11,0,0,1-1.69-2.22l-1.9-2.94,3,1.89a18.56,18.56,0,0,1,2.12,1.62A.5.5,0,0,0,25.4,6c.35-.31.72-.61,1.1-.9s.73-.54,1.1-.79l2.95-1.9-1.89,3A18.19,18.19,0,0,1,27,7.58,18.89,18.89,0,0,1,28.66,9.78Z"/></g></g></svg>