<svg width="26px" height="42px" xmlns="http://www.w3.org/2000/svg" viewBox="0 0 26.64 44.74"><title>Ресурс 4</title><g id="Слой_2" data-name="Слой 2"><g id="Слой_1-2" data-name="Слой 1"><path fill="white" d="M13.5,44.74A13.25,13.25,0,0,1,0,31.8C-.21,26.33,1.55,21.36,3.3,17.22,5.94,11,9.9,5.5,13.8.53a1.18,1.18,0,0,1,.38-.32l.15-.09a.64.64,0,0,1,.9.16.68.68,0,0,1,.11.29c.61,4.7,2.95,8.73,5.22,12.62.84,1.44,1.7,2.93,2.48,4.43h0c2.54,5,3.68,9.32,3.6,13.68A13.35,13.35,0,0,1,13.78,44.73Zm.77-42.67A69.36,69.36,0,0,0,4.5,17.72c-1.7,4-3.4,8.81-3.18,14a12,12,0,0,0,24-.47c.08-4.13-1-8.29-3.46-13-.75-1.48-1.61-2.95-2.44-4.38-2.12-3.64-4.3-7.39-5.17-11.77Z"/><path fill="white" d="M6.32,37.18a.66.66,0,0,1-.54-.28c-3.91-5.7-.18-13.82,0-14.16a.65.65,0,0,1,1.17.55c0,.07-3.57,7.79-.08,12.87a.65.65,0,0,1-.17.9.61.61,0,0,1-.37.12Z"/></g></g></svg>