<svg width="27px" height="31px" xmlns="http://www.w3.org/2000/svg" viewBox="0 0 28.76 33.87"><title>Ресурс 3</title><g id="Слой_2" data-name="Слой 2"><g id="Слой_1-2" data-name="Слой 1"><path fill="white" d="M13.21,18.67a2,2,0,0,1-.05.48,1,1,0,0,1-.12.32.46.46,0,0,1-.17.17.36.36,0,0,1-.2.06H2.45a.36.36,0,0,1-.2-.06.46.46,0,0,1-.17-.17A.8.8,0,0,1,2,19.15a2.61,2.61,0,0,1-.05-.48A2.5,2.5,0,0,1,2,18.2a1,1,0,0,1,.12-.32.45.45,0,0,1,.16-.2.44.44,0,0,1,.22-.07H6.53V2.74L2.75,5a1.83,1.83,0,0,1-.46.18A.29.29,0,0,1,2,5.1a.55.55,0,0,1-.14-.32,5,5,0,0,1,0-1c0-.1,0-.2.07-.3a.57.57,0,0,1,.13-.21,1.24,1.24,0,0,1,.22-.18L6.77.18A.46.46,0,0,1,6.93.11L7.15.05a1.17,1.17,0,0,1,.32,0h.45a6.08,6.08,0,0,1,.61,0,1.72,1.72,0,0,1,.38.08.4.4,0,0,1,.18.14.33.33,0,0,1,0,.17V17.61h3.54a.48.48,0,0,1,.23.07.55.55,0,0,1,.17.2,1.21,1.21,0,0,1,.11.32A3.71,3.71,0,0,1,13.21,18.67Z"/><path fill="white" d="M28.76,13.41a6.91,6.91,0,0,1-.53,2.8,5.54,5.54,0,0,1-1.49,2.06,6.64,6.64,0,0,1-2.31,1.28,9.63,9.63,0,0,1-3,.44,11,11,0,0,1-1.72-.13,11.7,11.7,0,0,1-1.45-.32,7.69,7.69,0,0,1-1.05-.37,2.22,2.22,0,0,1-.52-.29.74.74,0,0,1-.16-.19,2,2,0,0,1-.08-.22,1.26,1.26,0,0,1-.05-.33c0-.13,0-.28,0-.47s0-.3,0-.46a1,1,0,0,1,.09-.33.42.42,0,0,1,.14-.18.34.34,0,0,1,.19-.07,1.29,1.29,0,0,1,.47.19,5.54,5.54,0,0,0,.85.41,10.78,10.78,0,0,0,1.33.42,7.49,7.49,0,0,0,1.89.19,6.8,6.8,0,0,0,1.85-.23,3.92,3.92,0,0,0,1.46-.76,3.39,3.39,0,0,0,1-1.29,4.58,4.58,0,0,0,.35-1.9A4.47,4.47,0,0,0,25.72,12a3,3,0,0,0-.91-1.19,3.91,3.91,0,0,0-1.55-.71A9.38,9.38,0,0,0,21,9.86a10.6,10.6,0,0,0-1.59.09c-.41.05-.82.08-1.24.09a.79.79,0,0,1-.6-.2,1.29,1.29,0,0,1-.18-.76v-8a1,1,0,0,1,.24-.74.89.89,0,0,1,.68-.24H27a.44.44,0,0,1,.24.07.61.61,0,0,1,.19.2,2.06,2.06,0,0,1,.12.35,2.8,2.8,0,0,1,0,.5,1.91,1.91,0,0,1-.14.85.45.45,0,0,1-.41.3H20V7.9a8.93,8.93,0,0,1,1-.1h1.23a9,9,0,0,1,2.82.4,5.68,5.68,0,0,1,2,1.13,4.76,4.76,0,0,1,1.22,1.78A6.29,6.29,0,0,1,28.76,13.41Z"/><path fill="white" d="M8.75,33.48a.49.49,0,0,1,.05.2.14.14,0,0,1-.06.12.31.31,0,0,1-.16.06H8l-.16,0a.18.18,0,0,1-.08-.07.47.47,0,0,1-.06-.09l-1-2.83H2.05l-1,2.81a.31.31,0,0,1-.05.1.22.22,0,0,1-.09.07l-.16,0H.23a.49.49,0,0,1-.17-.06A.14.14,0,0,1,0,33.68a.46.46,0,0,1,.05-.2L3.76,23.4a.5.5,0,0,1,.08-.12A.31.31,0,0,1,4,23.22a.58.58,0,0,1,.19,0,1,1,0,0,1,.25,0,1.15,1.15,0,0,1,.26,0,.72.72,0,0,1,.19,0,.34.34,0,0,1,.12.06.47.47,0,0,1,.07.12ZM4.36,24.29h0l-2,5.7H6.4Z"/><path fill="white" d="M15.79,23.68a1.37,1.37,0,0,1,0,.19.35.35,0,0,1,0,.13.3.3,0,0,1-.08.08.2.2,0,0,1-.11,0H12.37v9.55a.29.29,0,0,1,0,.09.16.16,0,0,1-.08.06l-.16,0-.24,0-.24,0-.15,0a.16.16,0,0,1-.11-.15V24.11H8.21a.2.2,0,0,1-.11,0A.2.2,0,0,1,8,24a.35.35,0,0,1,0-.13,1.37,1.37,0,0,1,0-.19,1.23,1.23,0,0,1,0-.2.38.38,0,0,1,0-.15.2.2,0,0,1,.08-.08.2.2,0,0,1,.11,0h7.32a.23.23,0,0,1,.11,0,.2.2,0,0,1,.08.08.88.88,0,0,1,0,.15A1.23,1.23,0,0,1,15.79,23.68Z"/><path fill="white" d="M28.55,33.65a.2.2,0,0,1,0,.09.13.13,0,0,1-.09.07l-.15,0-.24,0-.23,0-.16,0a.15.15,0,0,1-.1-.16V24.09h0l-4.17,9.62-.05.06a.19.19,0,0,1-.09,0l-.13,0a.59.59,0,0,1-.19,0,.61.61,0,0,1-.19,0,.7.7,0,0,1-.14,0l-.09,0,0-.06-4-9.62h0v9.56a.29.29,0,0,1,0,.09.2.2,0,0,1-.09.07l-.16,0-.24,0-.24,0-.15,0a.18.18,0,0,1-.08-.07.29.29,0,0,1,0-.09V23.73a.44.44,0,0,1,.16-.4.46.46,0,0,1,.3-.11h.54a1.47,1.47,0,0,1,.36,0,1.43,1.43,0,0,1,.28.13,1.34,1.34,0,0,1,.2.21,2.44,2.44,0,0,1,.14.28L23,32.3h0l3.65-8.38a2.16,2.16,0,0,1,.17-.34,1.34,1.34,0,0,1,.2-.21.53.53,0,0,1,.22-.12.78.78,0,0,1,.26,0h.6a.4.4,0,0,1,.15,0,.28.28,0,0,1,.15.08.42.42,0,0,1,.11.16.53.53,0,0,1,0,.25Z"/></g></g></svg>