<svg width="39px" height="33px" xmlns="http://www.w3.org/2000/svg" viewBox="0 0 40.83 34.55"><title>Ресурс 5</title><g id="Слой_2" data-name="Слой 2"><g id="Слой_1-2" data-name="Слой 1"><path fill="white" d="M16.2,7.87H13.44a.52.52,0,0,1-.52-.52V1.9a1.9,1.9,0,1,1,3.8,0V7.35A.52.52,0,0,1,16.2,7.87ZM14,6.82h1.7V1.9a.85.85,0,0,0-1.7,0Z"/><path fill="white" d="M4.91,7.87H2.15a.52.52,0,0,1-.52-.52V1.9a1.9,1.9,0,0,1,3.8,0V7.35A.53.53,0,0,1,4.91,7.87Zm-2.23-1H4.39V1.9a.86.86,0,0,0-.86-.85.85.85,0,0,0-.85.85Z"/><path fill="white" d="M30.67,34.54a10.22,10.22,0,0,1-10.4-10A26.06,26.06,0,0,1,22.8,13.3,57.68,57.68,0,0,1,30.9.41a1.18,1.18,0,0,1,.3-.25l.11-.07a.51.51,0,0,1,.49,0,.52.52,0,0,1,.3.4c.47,3.63,2.27,6.74,4,9.74.64,1.12,1.31,2.27,1.91,3.43h0a21.81,21.81,0,0,1,2.78,10.56,10.29,10.29,0,0,1-9.93,10.37Zm.6-32.94a53.57,53.57,0,0,0-7.55,12.09,25.15,25.15,0,0,0-2.45,10.82,9.24,9.24,0,0,0,9.4,9h.2a9.31,9.31,0,0,0,9-9.39,20.94,20.94,0,0,0-2.67-10.08c-.59-1.14-1.25-2.28-1.89-3.38-1.63-2.81-3.32-5.71-4-9.09Z"/><path fill="white" d="M18.35,9.12V12.4a.52.52,0,0,1-.52.53H.52A.53.53,0,0,1,0,12.4H0V9.12A.52.52,0,0,1,.52,8.6H17.83a.52.52,0,0,1,.52.52ZM17.3,11.88V9.65H1.05v2.23Z"/><path fill="white" d="M12.29,25.9V34a.52.52,0,0,1-.52.53H6.59A.52.52,0,0,1,6.06,34h0V25.9a.53.53,0,0,1,.53-.53h5.17a.53.53,0,0,1,.53.53Zm-1,7.6V26.42H7.11V33.5Z"/><path fill="white" d="M18.35,9.12v9.2A6.31,6.31,0,0,1,12,24.63H6.31A6.32,6.32,0,0,1,0,18.32V9.12A.52.52,0,0,1,.52,8.6H17.83a.52.52,0,0,1,.52.52Zm-17.3,9.2a5.27,5.27,0,0,0,5.26,5.27H12a5.28,5.28,0,0,0,5.26-5.27V9.65H1.05Z"/><path fill="white" d="M26.23,28.15a.66.66,0,0,1-.54-.28c-3-4.38-.15-10.61,0-10.87a.65.65,0,0,1,.86-.32.66.66,0,0,1,.32.87h0c0,.05-2.67,5.82-.08,9.58a.64.64,0,0,1-.17.9.67.67,0,0,1-.36.12Z"/></g></g></svg>