<svg width="512" height="512" viewBox="0 0 512 512" fill="none" xmlns="http://www.w3.org/2000/svg">
<g clip-path="url(#clip0)">
<path d="M278.242 251.796C276.847 249.734 274.521 248.5 272.032 248.5H251.045L262.963 218.705C264.502 214.859 262.631 210.494 258.785 208.956C254.938 207.414 250.574 209.288 249.036 213.134L233.004 253.215C232.08 255.526 232.361 258.145 233.757 260.205C235.152 262.266 237.479 263.5 239.967 263.5H260.954L249.036 293.295C247.497 297.141 249.368 301.506 253.214 303.044C254.128 303.41 255.07 303.583 255.997 303.583C258.974 303.583 261.79 301.799 262.963 298.867L278.995 258.786C279.919 256.475 279.638 253.856 278.242 251.796Z" fill="#F46F16"/>
<path d="M470.644 42.963C444.007 15.906 408.501 0.656002 370.666 0.0220024C332.912 -0.621998 296.871 14.035 269.188 41.258C240.757 69.216 224.452 107.898 224.452 147.383V176.355H199.888C186.912 176.355 176.356 186.912 176.356 199.887V312.112C176.356 325.088 186.913 335.644 199.888 335.644H224.452V368.225C224.452 390.851 214.821 412.596 198.027 427.883C181.018 443.366 158.978 450.7 135.978 448.535C95.11 444.688 63.098 408.277 63.098 365.642C63.098 361.5 59.74 358.142 55.598 358.142C51.456 358.142 48.098 361.5 48.098 365.642C48.098 389.83 56.817 413.163 72.648 431.343C88.734 449.815 110.726 461.224 134.572 463.468C137.704 463.763 140.818 463.909 143.912 463.909C167.753 463.909 190.271 455.227 208.125 438.975C228.034 420.851 239.453 395.064 239.453 368.225V335.644H272.55V364.616C272.55 400.107 257.878 434.89 232.296 460.046C207.503 484.427 175.304 497.544 141.587 496.979C107.708 496.412 75.908 482.751 52.048 458.513C28.159 434.247 15.004 402.182 15.004 368.224V264.016C15.004 263.731 15.235 263.5 15.52 263.5H47.584C47.869 263.5 48.1 263.731 48.1 264.016V333.155C48.1 337.297 51.458 340.655 55.6 340.655C59.742 340.655 63.1 337.297 63.1 333.155V264.016C63.1 255.46 56.14 248.5 47.584 248.5H39.051V207.903C39.051 203.761 35.693 200.403 31.551 200.403C27.409 200.403 24.051 203.761 24.051 207.903V248.5H15.519C6.96299 248.5 0.00299072 255.46 0.00299072 264.016V368.224C0.00299072 406.145 14.69 441.948 41.358 469.036C67.995 496.093 103.501 511.344 141.336 511.977C142.12 511.99 142.899 511.997 143.681 511.997C180.581 511.997 215.705 497.4 242.813 470.741C271.244 442.783 287.549 404.101 287.549 364.616V335.644H312.113C325.089 335.644 335.645 325.087 335.645 312.112V199.888C335.645 186.912 325.088 176.356 312.113 176.356H287.549V143.775C287.549 121.149 297.18 99.404 313.974 84.117C330.983 68.634 353.022 61.302 376.023 63.465C416.891 67.312 448.903 103.723 448.903 146.358C448.903 150.5 452.261 153.858 456.403 153.858C460.545 153.858 463.903 150.5 463.903 146.358C463.903 122.17 455.184 98.837 439.353 80.657C423.267 62.185 401.275 50.776 377.429 48.532C350.164 45.966 324.047 54.664 303.876 73.025C283.967 91.149 272.548 116.936 272.548 143.775V176.356H239.45V147.384C239.45 111.893 254.122 77.11 279.704 51.954C304.497 27.573 336.7 14.464 370.413 15.021C404.292 15.588 436.092 29.249 459.952 53.487C483.841 77.753 496.996 109.818 496.996 143.776V247.984C496.996 248.269 496.765 248.5 496.48 248.5H464.416C464.131 248.5 463.9 248.269 463.9 247.984V178.845C463.9 174.703 460.542 171.345 456.4 171.345C452.258 171.345 448.9 174.703 448.9 178.845V247.984C448.9 256.54 455.86 263.5 464.416 263.5H472.948V304.097C472.948 308.239 476.306 311.597 480.448 311.597C484.59 311.597 487.948 308.239 487.948 304.097V263.5H496.48C505.036 263.5 511.996 256.54 511.996 247.984V143.775C511.999 105.854 497.312 70.053 470.644 42.963ZM312.113 191.356C316.817 191.356 320.645 195.184 320.645 199.888V312.113C320.645 316.818 316.817 320.645 312.113 320.645H199.888C195.183 320.645 191.356 316.817 191.356 312.113V199.888C191.356 195.183 195.184 191.356 199.888 191.356H312.113Z" fill="white"/>
<path d="M22.226 180.502L14.21 164.47C12.358 160.765 7.85299 159.262 4.14799 161.116C0.442987 162.968 -1.05901 167.473 0.793988 171.178L8.80999 187.21C10.124 189.838 12.772 191.357 15.524 191.357C16.651 191.357 17.795 191.102 18.872 190.564C22.577 188.712 24.079 184.207 22.226 180.502Z" fill="white"/>
<path d="M58.951 161.116C55.246 159.262 50.741 160.766 48.889 164.47L40.873 180.502C39.021 184.207 40.522 188.712 44.227 190.564C45.304 191.103 46.448 191.357 47.575 191.357C50.326 191.357 52.975 189.837 54.289 187.21L62.305 171.178C64.158 167.473 62.656 162.968 58.951 161.116Z" fill="white"/>
<path d="M511.206 340.823L503.19 324.791C501.338 321.086 496.834 319.583 493.128 321.437C489.423 323.289 487.921 327.794 489.774 331.499L497.79 347.531C499.104 350.159 501.752 351.678 504.504 351.678C505.631 351.678 506.775 351.423 507.852 350.885C511.557 349.033 513.059 344.528 511.206 340.823Z" fill="white"/>
<path d="M467.772 321.437C464.067 319.583 459.563 321.087 457.71 324.791L449.694 340.823C447.841 344.528 449.343 349.033 453.048 350.885C454.125 351.424 455.269 351.678 456.396 351.678C459.147 351.678 461.796 350.158 463.11 347.531L471.126 331.499C472.979 327.794 471.477 323.289 467.772 321.437Z" fill="white"/>
</g>
<defs>
<clipPath id="clip0">
<rect width="511.999" height="511.999" fill="white"/>
</clipPath>
</defs>
</svg>
